<svg xmlns="http://www.w3.org/2000/svg" viewBox="0 0 1200 520" role="img" aria-labelledby="title desc">
  <title id="title">公開行程情報地圖</title>
  <desc id="desc">抽象世界地圖，標示各區域的公開事件訊號。</desc>
  <defs>
    <linearGradient id="bg" x1="0" x2="1" y1="0" y2="1">
      <stop offset="0" stop-color="#0b1220"/>
      <stop offset="0.5" stop-color="#111827"/>
      <stop offset="1" stop-color="#1f2937"/>
    </linearGradient>
    <radialGradient id="pulse" cx="50%" cy="50%" r="50%">
      <stop offset="0" stop-color="#f59e0b" stop-opacity=".85"/>
      <stop offset=".35" stop-color="#22c55e" stop-opacity=".45"/>
      <stop offset="1" stop-color="#38bdf8" stop-opacity="0"/>
    </radialGradient>
    <filter id="blur">
      <feGaussianBlur stdDeviation="8"/>
    </filter>
  </defs>
  <rect width="1200" height="520" rx="28" fill="url(#bg)"/>
  <g opacity=".12" stroke="#e5e7eb" stroke-width="1">
    <path d="M0 80h1200M0 160h1200M0 240h1200M0 320h1200M0 400h1200"/>
    <path d="M120 0v520M240 0v520M360 0v520M480 0v520M600 0v520M720 0v520M840 0v520M960 0v520M1080 0v520"/>
  </g>
  <g fill="#94a3b8" opacity=".58">
    <path d="M165 154l48-30 82 11 38 34-22 42-57 9-69-18-40 18-35-19 13-35z"/>
    <path d="M313 244l50-24 63 20 31 45-28 54-57 30-55-33-32-58z"/>
    <path d="M542 146l72-22 83 18 59 40 7 58-49 24-99-12-89 11-54-28 18-58z"/>
    <path d="M734 283l45-36 58 14 39 48-10 67-53 42-61-31-36-59z"/>
    <path d="M832 156l68-45 121 12 74 44-18 52-91 20-103-11-66 18-43-28 10-42z"/>
    <path d="M936 300l83-19 55 33-9 55-54 38-68-25-29-43z"/>
  </g>
  <g opacity=".85">
    <circle cx="892" cy="176" r="108" fill="url(#pulse)" filter="url(#blur)"/>
    <circle cx="892" cy="176" r="13" fill="#f59e0b"/>
    <circle cx="892" cy="176" r="36" fill="none" stroke="#f59e0b" stroke-width="2"/>
    <circle cx="626" cy="176" r="9" fill="#22c55e"/>
    <circle cx="626" cy="176" r="28" fill="none" stroke="#22c55e" stroke-width="2"/>
    <circle cx="330" cy="282" r="8" fill="#38bdf8"/>
    <circle cx="330" cy="282" r="23" fill="none" stroke="#38bdf8" stroke-width="2"/>
  </g>
  <g font-family="Inter, Arial, sans-serif" fill="#f8fafc">
    <text x="58" y="72" font-size="26" font-weight="700">僅使用公開訊號</text>
    <text x="58" y="105" font-size="15" fill="#cbd5e1">官方活動、新聞室、公開議程與具名媒體報導。</text>
  </g>
</svg>
